{"title":"The Hunt for Red October 1990 HDDVD Rip H264 AAC - IceBane","uid":5280852,"size":2510377203,"categoryP":"video","categoryS":"movies","magnet":"?xt=urn:btih:73f3c91e7ed878e19d0f75ac5d39e86dac9354f4&amp;dn=The+Hunt+for+Red+October+1990+HDDVD+Rip+H264+AAC+-+IceBane&amp;tr=udp%3A%2F%2Ftracker.openbittorrent.com%3A80&amp;tr=udp%3A%2F%2Fopen.demonii.com%3A1337&amp;tr=udp%3A%2F%2Ftracker.coppersurfer.tk%3A6969&amp;tr=udp%3A%2F%2Fexodus.desync.com%3A6969","seeders":0,"leechers":1,"uploader":"IceBane","files":-1,"time":1263545922,"description":"Plot:\n\nA new, technologically-superior Soviet sub, the Red October, is heading for the U.S. coast under the command of Marko Ramius. The American government thinks Ramius is planning to attack. A lone CIA analyst has a different idea: he thinks Ramius is planning to defect, but he has only a few hours to find him and prove it--because the entire Russian naval and air commands are trying to find him, too. The hunt is on!\n\n\nGeneral\n\nTitle:               The Hunt for Red October\nDirector:            John McTiernan\nRelease Date:        2 March 1990 (USA)\nLanguage:            English\nRuntime:             134 min\nGenre:               Action | Adventure | Thriller\nColor:               Color\nIMDb Rating:         7.6/10 52,412 votes\nLink:               &lt;a href=&quot; http://www.imdb.com/title/tt0099810/&quot; rel=&quot;nofollow&quot; target=&quot;_NEW&quot;&gt; http://www.imdb.com/title/tt0099810/&lt;/a&gt;\nStudio:              Paramount\nLanguage:            English\nSubtitles:           English, English SDH , French, Spanish\nSample Video:        yes\nTotal Download Size: 2.33 GB\n\n\nVideo\n\nFormat                           : H.264/MPEG-4 AVC\nFormat/Info                      : Advanced Video Codec\nFormat profile                   : &lt;a class=&quot;__cf_email__&quot; href=&quot;/cdn-cgi/l/email-protection&quot; data-cfemail=&quot;2169484649616d150f10&quot;&gt;[email&amp;#160;protected]&lt;/a&gt;&lt;script cf-hash='f9e31' type=&quot;text/javascript&quot;&gt;\n/* &lt;![CDATA[ */!function(){try{var t=&quot;currentScript&quot;in document?document.currentScript:function(){for(var t=document.getElementsByTagName(&quot;script&quot;),e=t.length;e--;)if(t[e].getAttribute(&quot;cf-hash&quot;))return t[e]}();if(t&amp;&amp;t.previousSibling){var e,r,n,i,c=t.previousSibling,a=c.getAttribute(&quot;data-cfemail&quot;);if(a){for(e=&quot;&quot;,r=parseInt(a.substr(0,2),16),n=2;a.length-n;n+=2)i=parseInt(a.substr(n,2),16)^r,e+=String.fromCharCode(i);e=document.createTextNode(e),c.parentNode.replaceChild(e,c)}}}catch(u){}}();/* ]]&gt; */&lt;/script&gt;\nFormat settings, CABAC           : Yes\nFormat settings, ReFrames        : 2 frames\nCodec ID                         : avc1\nCodec ID/Info                    : Advanced Video Coding\nDuration                         : 2h 15mn\nBit rate mode                    : Variable\nBit rate                         : 1 940 Kbps\nMaximum bit rate                 : 4 506 Kbps\nWidth                            : 1 376 pixels\nHeight                           : 768 pixels\nDisplay aspect ratio             : 16:9\nFrame rate mode                  : Constant\nFrame rate                       : 23.976 fps\nResolution                       : 24 bits\nColorimetry                      : 4:2:0\nScan type                        : Progressive\nBits/(Pixel*Frame)               : 0.077\nStream size                      : 1.83 GiB (79%)\n\n\nAudio\n\nFormat                           : mp4a - MPEG-4 AAC LC\nFormat/Info                      : Advanced Audio Codec\nFormat version                   : Version 4\nFormat profile                   : LC\nFormat settings, SBR             : No\nCodec ID                         : 40\nDuration                         : 2h 15mn\nBit rate mode                    : Variable\nBit rate                         : 512 Kbps\nMaximum bit rate                 : 611 Kbps\nChannel(s)                       : 6 channels\nChannel positions                : Front: L C R, Rear: L R, LFE\nSampling rate                    : 48.0 KHz\nResolution                       : 16 bits\nStream size                      : 494 MiB (21%)\n\nPlease Let me know if this works on a PS3.\n\nThanks and keep seeding.\n\nIceBane\n\n","torrent":{"xt":"urn:btih:73f3c91e7ed878e19d0f75ac5d39e86dac9354f4","amp;dn":"The+Hunt+for+Red+October+1990+HDDVD+Rip+H264+AAC+-+IceBane","amp;tr":["udp%3A%2F%2Ftracker.openbittorrent.com%3A80","udp%3A%2F%2Fopen.demonii.com%3A1337","udp%3A%2F%2Ftracker.coppersurfer.tk%3A6969","udp%3A%2F%2Fexodus.desync.com%3A6969"],"infoHash":"73f3c91e7ed878e19d0f75ac5d39e86dac9354f4","infoHashBuffer":{"type":"Buffer","data":[115,243,201,30,126,216,120,225,157,15,117,172,93,57,232,109,172,147,84,244]},"announce":[],"urlList":[]}}